<?xml version="1.0" encoding="iso-8859-1"?>
<!-- Generator: Adobe Illustrator 19.0.0, SVG Export Plug-In . SVG Version: 6.00 Build 0)  -->
<svg version="1.1" id="Capa_1" xmlns="http://www.w3.org/2000/svg" xmlns:xlink="http://www.w3.org/1999/xlink" x="0px" y="0px"
	 viewBox="0 0 512 512" style="enable-background:new 0 0 512 512;" xml:space="preserve">
<path style="fill:#FF7357;" d="M212.842,324.588l-39.166-39.13c-4.51-4.506-4.51-11.816,0-16.322l16.315-16.3l47.335,47.291
	L212.842,324.588z"/>
<path style="fill:#51E3F0;" d="M427.934,348.597l-21.06,21.04l-21.46,21.44c-15.76,15.74-41.3,15.74-57.05,0l-244.47-244.24
	l78.12-78.04l21.45-21.43l142.41,142.28l-21.44,21.42l-40.58,40.55v0.01h0.01l81.6,81.52l16.09-16.07l45.93-45.9l20.45,20.43
	C443.674,307.337,443.674,332.867,427.934,348.597z"/>
<g>
	<polygon style="fill:#54D2EF;" points="325.874,189.647 304.434,211.067 162.024,68.797 162.014,68.797 183.464,47.367 	"/>
	<path style="fill:#54D2EF;" d="M361.554,317.077c0,0.01,0,0.01,0,0.01l-25.54,25.52c-6.62,6.62-17.35,6.62-23.97,0l-57.62-57.57
		c-6.63-6.62-6.63-17.36,0-23.98l9.43-9.43h0.01l81.6,81.52L361.554,317.077z"/>
	<path style="fill:#54D2EF;" d="M427.934,348.597l-21.06,21.04c15.36-15.76,15.24-40.99-0.38-56.6l-20.44-20.42l-0.01-0.02
		l21.44-21.42l20.45,20.43C443.674,307.337,443.674,332.867,427.934,348.597z"/>
</g>
<polygon style="fill:#FF7357;" points="172.854,57.967 151.404,79.387 94.504,136.237 61.864,103.627 118.754,46.777 
	140.204,25.347 "/>
<polygon style="fill:#FB624C;" points="172.854,57.967 151.404,79.387 118.774,46.787 118.754,46.777 140.204,25.347 "/>
<path style="fill:#FFF6CF;" d="M442.173,429.773l-47.746-47.702l24.483-24.461l47.74,47.696c1.804,1.802,1.804,4.726,0,6.529
	l-17.955,17.938C446.895,431.573,443.975,431.573,442.173,429.773z"/>
<polygon style="fill:#4A575E;" points="197.336,475.431 140.208,418.355 219.371,282.188 276.499,339.264 "/>
<polygon style="fill:#3A4449;" points="260.913,366.073 276.499,339.264 219.371,282.188 203.792,308.986 "/>
<path style="fill:#FFBF64;" d="M123.882,402.045l76.715,76.645c1.804,1.802,1.804,4.726,0,6.529l-17.955,17.938
	c-1.802,1.8-4.721,1.8-6.523,0l-76.715-76.645c-1.804-1.802-1.804-4.726,0-6.529l17.955-17.938
	C119.161,400.245,122.081,400.245,123.882,402.045z"/>
<path style="fill:#4A575E;" d="M83.079,82.423L44.846,28.185c-1.293-1.834-1.078-4.331,0.51-5.917l13.422-13.41
	c1.588-1.586,4.087-1.801,5.923-0.51l54.288,38.198L83.079,82.423z"/>
<polygon style="fill:#FFF6CF;" points="345.461,333.149 263.849,251.612 288.333,227.151 369.944,308.688 "/>
<path d="M471.947,400.001l-15.062-15.05c-2.929-2.927-7.678-2.927-10.606,0.004c-2.928,2.93-2.926,7.679,0.005,10.607l13.019,13.008
	l-13.872,13.859l-40.395-40.359l13.872-13.859l5.198,5.193c2.928,2.926,7.677,2.926,10.606-0.005
	c2.928-2.93,2.926-7.679-0.005-10.606l-5.189-5.184l3.707-3.704c9.036-9.028,14.012-21.032,14.012-33.803
	c0-12.77-4.976-24.775-14.012-33.803l-20.443-20.425c-2.928-2.926-7.674-2.926-10.601,0l-32.24,32.211l-70.999-70.935l32.23-32.201
	c1.408-1.407,2.199-3.315,2.199-5.306c0-1.99-0.791-3.899-2.199-5.306L227.874,81.132c-2.93-2.928-7.679-2.925-10.606,0.005
	c-2.928,2.93-2.925,7.679,0.005,10.606l97.989,97.901l-56.714,56.663c-1.408,1.407-2.199,3.315-2.199,5.306
	c0,1.99,0.791,3.899,2.199,5.306l81.611,81.537c0.183,0.183,0.373,0.354,0.569,0.514c2.748,2.24,6.714,2.24,9.463,0
	c0.196-0.16,0.386-0.331,0.569-0.514l56.723-56.672l15.142,15.129c6.2,6.194,9.614,14.431,9.614,23.192s-3.414,16.997-9.614,23.191
	l-42.519,42.48c-12.804,12.793-33.639,12.792-46.444,0l0,0l1.663,1.54c-0.008-0.008,0,0-0.008-0.008L94.51,146.837l0,0l0,0l0,0
	l88.954-88.873l11.363,11.352c2.93,2.928,7.679,2.926,10.606-0.005c2.928-2.93,2.925-7.679-0.005-10.606l-16.663-16.648
	c-2.929-2.926-7.674-2.926-10.601,0l-5.309,5.304L145.51,20.042c-2.929-2.926-7.674-2.927-10.601,0l-16.758,16.743L69.02,2.215
	C64.191-1.183,57.655-0.62,53.481,3.552l-13.422,13.41c-4.181,4.177-4.744,10.714-1.339,15.544l34.593,49.075l-16.75,16.735
	c-1.408,1.407-2.199,3.315-2.199,5.306c0,1.99,0.791,3.899,2.199,5.306l27.334,27.309l-5.299,5.294
	c-1.408,1.407-2.199,3.315-2.199,5.306c0,1.99,0.791,3.899,2.199,5.306l100.784,100.694l-11.004,10.991
	c-3.599,3.591-5.582,8.369-5.585,13.455c-0.003,5.09,1.978,9.877,5.582,13.481l23.619,23.594l-53.374,91.809l-9.435-9.427l0,0
	c-4.721-4.716-12.402-4.716-17.124,0l-17.955,17.938c-2.29,2.289-3.552,5.332-3.552,8.57s1.261,6.281,3.552,8.57l76.713,76.644
	c2.361,2.359,5.461,3.538,8.563,3.538c3.101,0,6.202-1.18,8.562-3.538l17.955-17.938c2.29-2.289,3.552-5.333,3.552-8.57
	c0-2.841-0.972-5.532-2.758-7.695l53.927-92.76c2.082-3.581,0.867-8.171-2.714-10.253c-3.58-2.082-8.171-0.867-10.253,2.714
	l-51.905,89.282l-46.152-46.11l0,0l71.364-122.754l0,0c0.005,0.005-0.005-0.005,0,0l46.152,46.11l-3.094,5.321
	c-2.081,3.581-0.866,8.171,2.715,10.253c3.582,2.081,8.171,0.866,10.254-2.714l1.101-1.894l44.973,44.933
	c9.326,9.318,21.573,13.977,33.824,13.976c12.247-0.001,24.499-4.66,33.823-13.976l3.717-3.714l42.444,42.406
	c2.36,2.359,5.461,3.539,8.562,3.538c3.101,0,6.202-1.18,8.562-3.538l17.954-17.938c2.291-2.289,3.553-5.333,3.553-8.572
	C475.5,405.332,474.237,402.288,471.947,400.001z M274.46,251.612l13.873-13.859l70.999,70.935l-13.872,13.86L274.46,251.612z
	 M84.082,70.823l-31.7-44.97l9.987-9.978l45.01,31.671l0,0L84.082,70.823z M72.475,103.623L72.475,103.623
	C72.475,103.622,72.475,103.623,72.475,103.623l67.735-67.674c0.001-0.001-0.001,0.001,0,0l0,0l22.033,22.013l-67.734,67.674l0,0
	L72.475,103.623z M179.383,495.813l-72.632-72.566l13.872-13.859l72.631,72.566L179.383,495.813z M178.979,280.154
	c-0.766-0.765-1.186-1.782-1.186-2.863c0-1.076,0.419-2.086,1.182-2.847l11.019-11.005l19.991,19.973l-10.193,17.533
	L178.979,280.154z"/>
<path d="M194.072,116.83c1.92,0,3.841-0.733,5.306-2.199c2.928-2.93,2.925-7.679-0.005-10.606l-12.241-12.23
	c-2.93-2.928-7.679-2.925-10.606,0.005c-2.928,2.93-2.925,7.679,0.005,10.606l12.241,12.23
	C190.236,116.099,192.154,116.83,194.072,116.83z"/>
<path d="M170.813,140.068c1.92,0,3.841-0.733,5.306-2.199c2.928-2.93,2.925-7.679-0.005-10.606l-12.241-12.23
	c-2.93-2.928-7.679-2.925-10.606,0.005c-2.928,2.93-2.925,7.679,0.005,10.606l12.241,12.23
	C166.977,139.337,168.895,140.068,170.813,140.068z"/>
<path d="M140.614,138.27c-2.93-2.928-7.679-2.925-10.606,0.005c-2.928,2.93-2.925,7.679,0.005,10.606l12.241,12.23
	c1.464,1.463,3.382,2.194,5.301,2.194c1.92,0,3.841-0.733,5.306-2.199c2.928-2.93,2.925-7.679-0.005-10.606L140.614,138.27z"/>
<g>
</g>
<g>
</g>
<g>
</g>
<g>
</g>
<g>
</g>
<g>
</g>
<g>
</g>
<g>
</g>
<g>
</g>
<g>
</g>
<g>
</g>
<g>
</g>
<g>
</g>
<g>
</g>
<g>
</g>
</svg>
